ISO-10303-21;
HEADER;
/* Generated by software containing ST-Developer
 * from STEP Tools, Inc. (www.steptools.com) 
 */

FILE_DESCRIPTION(
/* description */ (''),
/* implementation_level */ '2;1');

FILE_NAME(
/* name */ '',
/* time_stamp */ '2025-02-22T19:12:29+10:00',
/* author */ (''),
/* organization */ (''),
/* preprocessor_version */ 'ST-DEVELOPER v20',
/* originating_system */ 'Autodesk Translation Framework v13.14.0.145',

/* authorisation */ '');

FILE_SCHEMA (('AUTOMOTIVE_DESIGN { 1 0 10303 214 3 1 1 }'));
ENDSEC;

DATA;
#10=MECHANICAL_DESIGN_GEOMETRIC_PRESENTATION_REPRESENTATION('',(#17),#872);
#11=ITEM_DEFINED_TRANSFORMATION($,$,#495,#564);
#12=(
REPRESENTATION_RELATIONSHIP($,$,#883,#882)
REPRESENTATION_RELATIONSHIP_WITH_TRANSFORMATION(#11)
SHAPE_REPRESENTATION_RELATIONSHIP()
);
#13=CONTEXT_DEPENDENT_SHAPE_REPRESENTATION(#12,#881);
#14=NEXT_ASSEMBLY_USAGE_OCCURRENCE('Base (1):1','Base (1):1',
'Base (1):1',#885,#886,'Base (1):1');
#15=SHAPE_REPRESENTATION_RELATIONSHIP('SRR','None',#883,#16);
#16=ADVANCED_BREP_SHAPE_REPRESENTATION('',(#18),#871);
#17=STYLED_ITEM('',(#896),#18);
#18=MANIFOLD_SOLID_BREP('Body6',#481);
#19=CYLINDRICAL_SURFACE('',#519,1.5);
#20=CYLINDRICAL_SURFACE('',#523,1.5);
#21=CYLINDRICAL_SURFACE('',#527,1.5);
#22=CYLINDRICAL_SURFACE('',#529,0.999999999999996);
#23=CYLINDRICAL_SURFACE('',#531,2.00000002980232);
#24=CYLINDRICAL_SURFACE('',#533,0.999999999999996);
#25=CYLINDRICAL_SURFACE('',#535,0.999999999999997);
#26=CYLINDRICAL_SURFACE('',#537,0.999999999999996);
#27=CYLINDRICAL_SURFACE('',#539,7.31178761997852);
#28=CYLINDRICAL_SURFACE('',#541,8.99999999999998);
#29=CYLINDRICAL_SURFACE('',#543,7.31178761997852);
#30=CYLINDRICAL_SURFACE('',#545,3.00000004470348);
#31=CYLINDRICAL_SURFACE('',#547,7.31178761997852);
#32=CYLINDRICAL_SURFACE('',#549,8.99999999999997);
#33=CYLINDRICAL_SURFACE('',#551,7.31178761997852);
#34=CYLINDRICAL_SURFACE('',#553,3.00000004470348);
#35=CYLINDRICAL_SURFACE('',#555,7.31178761997852);
#36=CYLINDRICAL_SURFACE('',#557,8.99999999999998);
#37=CYLINDRICAL_SURFACE('',#559,7.31178761997852);
#38=CYLINDRICAL_SURFACE('',#561,3.00000004470348);
#39=FACE_BOUND('',#84,.T.);
#40=FACE_BOUND('',#85,.T.);
#41=FACE_BOUND('',#86,.T.);
#42=FACE_BOUND('',#87,.T.);
#43=FACE_BOUND('',#88,.T.);
#44=FACE_BOUND('',#89,.T.);
#45=FACE_BOUND('',#90,.T.);
#46=FACE_BOUND('',#91,.T.);
#47=FACE_BOUND('',#115,.T.);
#48=FACE_BOUND('',#116,.T.);
#49=FACE_BOUND('',#117,.T.);
#50=FACE_BOUND('',#118,.T.);
#51=FACE_BOUND('',#119,.T.);
#52=FACE_BOUND('',#120,.T.);
#53=FACE_BOUND('',#121,.T.);
#54=FACE_BOUND('',#122,.T.);
#55=PLANE('',#499);
#56=PLANE('',#563);
#57=FACE_OUTER_BOUND('',#82,.T.);
#58=FACE_OUTER_BOUND('',#83,.T.);
#59=FACE_OUTER_BOUND('',#92,.T.);
#60=FACE_OUTER_BOUND('',#93,.T.);
#61=FACE_OUTER_BOUND('',#94,.T.);
#62=FACE_OUTER_BOUND('',#95,.T.);
#63=FACE_OUTER_BOUND('',#96,.T.);
#64=FACE_OUTER_BOUND('',#97,.T.);
#65=FACE_OUTER_BOUND('',#98,.T.);
#66=FACE_OUTER_BOUND('',#99,.T.);
#67=FACE_OUTER_BOUND('',#100,.T.);
#68=FACE_OUTER_BOUND('',#101,.T.);
#69=FACE_OUTER_BOUND('',#102,.T.);
#70=FACE_OUTER_BOUND('',#103,.T.);
#71=FACE_OUTER_BOUND('',#104,.T.);
#72=FACE_OUTER_BOUND('',#105,.T.);
#73=FACE_OUTER_BOUND('',#106,.T.);
#74=FACE_OUTER_BOUND('',#107,.T.);
#75=FACE_OUTER_BOUND('',#108,.T.);
#76=FACE_OUTER_BOUND('',#109,.T.);
#77=FACE_OUTER_BOUND('',#110,.T.);
#78=FACE_OUTER_BOUND('',#111,.T.);
#79=FACE_OUTER_BOUND('',#112,.T.);
#80=FACE_OUTER_BOUND('',#113,.T.);
#81=FACE_OUTER_BOUND('',#114,.T.);
#82=EDGE_LOOP('',(#321,#322,#323,#324));
#83=EDGE_LOOP('',(#325,#326,#327,#328,#329,#330,#331,#332,#333,#334,#335,
#336));
#84=EDGE_LOOP('',(#337));
#85=EDGE_LOOP('',(#338));
#86=EDGE_LOOP('',(#339));
#87=EDGE_LOOP('',(#340));
#88=EDGE_LOOP('',(#341));
#89=EDGE_LOOP('',(#342));
#90=EDGE_LOOP('',(#343));
#91=EDGE_LOOP('',(#344));
#92=EDGE_LOOP('',(#345,#346,#347,#348));
#93=EDGE_LOOP('',(#349,#350,#351,#352));
#94=EDGE_LOOP('',(#353,#354,#355,#356));
#95=EDGE_LOOP('',(#357,#358,#359,#360));
#96=EDGE_LOOP('',(#361,#362,#363,#364));
#97=EDGE_LOOP('',(#365,#366,#367,#368));
#98=EDGE_LOOP('',(#369,#370,#371,#372));
#99=EDGE_LOOP('',(#373,#374,#375,#376));
#100=EDGE_LOOP('',(#377,#378,#379,#380));
#101=EDGE_LOOP('',(#381,#382,#383,#384));
#102=EDGE_LOOP('',(#385,#386,#387,#388));
#103=EDGE_LOOP('',(#389,#390,#391,#392));
#104=EDGE_LOOP('',(#393,#394,#395,#396));
#105=EDGE_LOOP('',(#397,#398,#399,#400));
#106=EDGE_LOOP('',(#401,#402,#403,#404));
#107=EDGE_LOOP('',(#405,#406,#407,#408));
#108=EDGE_LOOP('',(#409,#410,#411,#412));
#109=EDGE_LOOP('',(#413,#414,#415,#416));
#110=EDGE_LOOP('',(#417,#418,#419,#420));
#111=EDGE_LOOP('',(#421,#422,#423,#424));
#112=EDGE_LOOP('',(#425,#426,#427,#428));
#113=EDGE_LOOP('',(#429,#430,#431,#432));
#114=EDGE_LOOP('',(#433,#434,#435,#436,#437,#438,#439,#440,#441,#442,#443,
#444));
#115=EDGE_LOOP('',(#445));
#116=EDGE_LOOP('',(#446));
#117=EDGE_LOOP('',(#447));
#118=EDGE_LOOP('',(#448));
#119=EDGE_LOOP('',(#449));
#120=EDGE_LOOP('',(#450));
#121=EDGE_LOOP('',(#451));
#122=EDGE_LOOP('',(#452));
#123=LINE('',#736,#146);
#124=LINE('',#779,#147);
#125=LINE('',#783,#148);
#126=LINE('',#787,#149);
#127=LINE('',#791,#150);
#128=LINE('',#795,#151);
#129=LINE('',#799,#152);
#130=LINE('',#803,#153);
#131=LINE('',#807,#154);
#132=LINE('',#811,#155);
#133=LINE('',#815,#156);
#134=LINE('',#821,#157);
#135=LINE('',#822,#158);
#136=LINE('',#826,#159);
#137=LINE('',#830,#160);
#138=LINE('',#834,#161);
#139=LINE('',#838,#162);
#140=LINE('',#842,#163);
#141=LINE('',#846,#164);
#142=LINE('',#850,#165);
#143=LINE('',#854,#166);
#144=LINE('',#858,#167);
#145=LINE('',#862,#168);
#146=VECTOR('',#573,2.);
#147=VECTOR('',#618,1.5);
#148=VECTOR('',#623,2.);
#149=VECTOR('',#628,1.5);
#150=VECTOR('',#633,2.);
#151=VECTOR('',#638,1.5);
#152=VECTOR('',#643,0.999999999999996);
#153=VECTOR('',#648,2.00000002980232);
#154=VECTOR('',#653,0.999999999999996);
#155=VECTOR('',#658,0.999999999999997);
#156=VECTOR('',#663,0.999999999999996);
#157=VECTOR('',#670,10.);
#158=VECTOR('',#671,10.);
#159=VECTOR('',#676,10.);
#160=VECTOR('',#681,10.);
#161=VECTOR('',#686,10.);
#162=VECTOR('',#691,10.);
#163=VECTOR('',#696,10.);
#164=VECTOR('',#701,10.);
#165=VECTOR('',#706,10.);
#166=VECTOR('',#711,10.);
#167=VECTOR('',#716,10.);
#168=VECTOR('',#721,10.);
#169=CIRCLE('',#497,2.5);
#170=CIRCLE('',#498,1.5);
#171=CIRCLE('',#500,3.00000004470348);
#172=CIRCLE('',#501,7.31178761997852);
#173=CIRCLE('',#502,8.99999999999998);
#174=CIRCLE('',#503,7.31178761997852);
#175=CIRCLE('',#504,3.00000004470348);
#176=CIRCLE('',#505,7.31178761997852);
#177=CIRCLE('',#506,8.99999999999997);
#178=CIRCLE('',#507,7.31178761997852);
#179=CIRCLE('',#508,3.00000004470348);
#180=CIRCLE('',#509,7.31178761997852);
#181=CIRCLE('',#510,8.99999999999998);
#182=CIRCLE('',#511,7.31178761997852);
#183=CIRCLE('',#512,2.5);
#184=CIRCLE('',#513,0.999999999999996);
#185=CIRCLE('',#514,2.00000002980232);
#186=CIRCLE('',#515,0.999999999999996);
#187=CIRCLE('',#516,0.999999999999997);
#188=CIRCLE('',#517,0.999999999999996);
#189=CIRCLE('',#518,2.5);
#190=CIRCLE('',#520,1.5);
#191=CIRCLE('',#522,1.5);
#192=CIRCLE('',#524,1.5);
#193=CIRCLE('',#526,1.5);
#194=CIRCLE('',#528,1.5);
#195=CIRCLE('',#530,0.999999999999996);
#196=CIRCLE('',#532,2.00000002980232);
#197=CIRCLE('',#534,0.999999999999996);
#198=CIRCLE('',#536,0.999999999999997);
#199=CIRCLE('',#538,0.999999999999996);
#200=CIRCLE('',#540,7.31178761997852);
#201=CIRCLE('',#542,8.99999999999998);
#202=CIRCLE('',#544,7.31178761997852);
#203=CIRCLE('',#546,3.00000004470348);
#204=CIRCLE('',#548,7.31178761997852);
#205=CIRCLE('',#550,8.99999999999997);
#206=CIRCLE('',#552,7.31178761997852);
#207=CIRCLE('',#554,3.00000004470348);
#208=CIRCLE('',#556,7.31178761997852);
#209=CIRCLE('',#558,8.99999999999998);
#210=CIRCLE('',#560,7.31178761997852);
#211=CIRCLE('',#562,3.00000004470348);
#212=VERTEX_POINT('',#733);
#213=VERTEX_POINT('',#735);
#214=VERTEX_POINT('',#739);
#215=VERTEX_POINT('',#740);
#216=VERTEX_POINT('',#742);
#217=VERTEX_POINT('',#744);
#218=VERTEX_POINT('',#746);
#219=VERTEX_POINT('',#748);
#220=VERTEX_POINT('',#750);
#221=VERTEX_POINT('',#752);
#222=VERTEX_POINT('',#754);
#223=VERTEX_POINT('',#756);
#224=VERTEX_POINT('',#758);
#225=VERTEX_POINT('',#760);
#226=VERTEX_POINT('',#763);
#227=VERTEX_POINT('',#765);
#228=VERTEX_POINT('',#767);
#229=VERTEX_POINT('',#769);
#230=VERTEX_POINT('',#771);
#231=VERTEX_POINT('',#773);
#232=VERTEX_POINT('',#775);
#233=VERTEX_POINT('',#778);
#234=VERTEX_POINT('',#782);
#235=VERTEX_POINT('',#786);
#236=VERTEX_POINT('',#790);
#237=VERTEX_POINT('',#794);
#238=VERTEX_POINT('',#798);
#239=VERTEX_POINT('',#802);
#240=VERTEX_POINT('',#806);
#241=VERTEX_POINT('',#810);
#242=VERTEX_POINT('',#814);
#243=VERTEX_POINT('',#818);
#244=VERTEX_POINT('',#819);
#245=VERTEX_POINT('',#824);
#246=VERTEX_POINT('',#828);
#247=VERTEX_POINT('',#832);
#248=VERTEX_POINT('',#836);
#249=VERTEX_POINT('',#840);
#250=VERTEX_POINT('',#844);
#251=VERTEX_POINT('',#848);
#252=VERTEX_POINT('',#852);
#253=VERTEX_POINT('',#856);
#254=VERTEX_POINT('',#860);
#255=EDGE_CURVE('',#212,#212,#169,.T.);
#256=EDGE_CURVE('',#212,#213,#123,.T.);
#257=EDGE_CURVE('',#213,#213,#170,.T.);
#258=EDGE_CURVE('',#214,#215,#171,.T.);
#259=EDGE_CURVE('',#215,#216,#172,.T.);
#260=EDGE_CURVE('',#216,#217,#173,.T.);
#261=EDGE_CURVE('',#217,#218,#174,.T.);
#262=EDGE_CURVE('',#218,#219,#175,.T.);
#263=EDGE_CURVE('',#219,#220,#176,.T.);
#264=EDGE_CURVE('',#220,#221,#177,.T.);
#265=EDGE_CURVE('',#221,#222,#178,.T.);
#266=EDGE_CURVE('',#222,#223,#179,.T.);
#267=EDGE_CURVE('',#223,#224,#180,.T.);
#268=EDGE_CURVE('',#224,#225,#181,.T.);
#269=EDGE_CURVE('',#225,#214,#182,.T.);
#270=EDGE_CURVE('',#226,#226,#183,.T.);
#271=EDGE_CURVE('',#227,#227,#184,.T.);
#272=EDGE_CURVE('',#228,#228,#185,.T.);
#273=EDGE_CURVE('',#229,#229,#186,.T.);
#274=EDGE_CURVE('',#230,#230,#187,.T.);
#275=EDGE_CURVE('',#231,#231,#188,.T.);
#276=EDGE_CURVE('',#232,#232,#189,.T.);
#277=EDGE_CURVE('',#213,#233,#124,.T.);
#278=EDGE_CURVE('',#233,#233,#190,.T.);
#279=EDGE_CURVE('',#226,#234,#125,.T.);
#280=EDGE_CURVE('',#234,#234,#191,.T.);
#281=EDGE_CURVE('',#234,#235,#126,.T.);
#282=EDGE_CURVE('',#235,#235,#192,.T.);
#283=EDGE_CURVE('',#232,#236,#127,.T.);
#284=EDGE_CURVE('',#236,#236,#193,.T.);
#285=EDGE_CURVE('',#236,#237,#128,.T.);
#286=EDGE_CURVE('',#237,#237,#194,.T.);
#287=EDGE_CURVE('',#227,#238,#129,.T.);
#288=EDGE_CURVE('',#238,#238,#195,.T.);
#289=EDGE_CURVE('',#228,#239,#130,.T.);
#290=EDGE_CURVE('',#239,#239,#196,.T.);
#291=EDGE_CURVE('',#229,#240,#131,.T.);
#292=EDGE_CURVE('',#240,#240,#197,.T.);
#293=EDGE_CURVE('',#230,#241,#132,.T.);
#294=EDGE_CURVE('',#241,#241,#198,.T.);
#295=EDGE_CURVE('',#231,#242,#133,.T.);
#296=EDGE_CURVE('',#242,#242,#199,.T.);
#297=EDGE_CURVE('',#243,#244,#200,.T.);
#298=EDGE_CURVE('',#243,#214,#134,.T.);
#299=EDGE_CURVE('',#244,#225,#135,.T.);
#300=EDGE_CURVE('',#245,#244,#201,.T.);
#301=EDGE_CURVE('',#245,#224,#136,.T.);
#302=EDGE_CURVE('',#245,#246,#202,.T.);
#303=EDGE_CURVE('',#246,#223,#137,.T.);
#304=EDGE_CURVE('',#247,#246,#203,.T.);
#305=EDGE_CURVE('',#247,#222,#138,.T.);
#306=EDGE_CURVE('',#247,#248,#204,.T.);
#307=EDGE_CURVE('',#248,#221,#139,.T.);
#308=EDGE_CURVE('',#249,#248,#205,.T.);
#309=EDGE_CURVE('',#249,#220,#140,.T.);
#310=EDGE_CURVE('',#249,#250,#206,.T.);
#311=EDGE_CURVE('',#250,#219,#141,.T.);
#312=EDGE_CURVE('',#251,#250,#207,.T.);
#313=EDGE_CURVE('',#251,#218,#142,.T.);
#314=EDGE_CURVE('',#251,#252,#208,.T.);
#315=EDGE_CURVE('',#252,#217,#143,.T.);
#316=EDGE_CURVE('',#253,#252,#209,.T.);
#317=EDGE_CURVE('',#253,#216,#144,.T.);
#318=EDGE_CURVE('',#253,#254,#210,.T.);
#319=EDGE_CURVE('',#254,#215,#145,.T.);
#320=EDGE_CURVE('',#243,#254,#211,.T.);
#321=ORIENTED_EDGE('',*,*,#255,.T.);
#322=ORIENTED_EDGE('',*,*,#256,.T.);
#323=ORIENTED_EDGE('',*,*,#257,.T.);
#324=ORIENTED_EDGE('',*,*,#256,.F.);
#325=ORIENTED_EDGE('',*,*,#258,.T.);
#326=ORIENTED_EDGE('',*,*,#259,.T.);
#327=ORIENTED_EDGE('',*,*,#260,.T.);
#328=ORIENTED_EDGE('',*,*,#261,.T.);
#329=ORIENTED_EDGE('',*,*,#262,.T.);
#330=ORIENTED_EDGE('',*,*,#263,.T.);
#331=ORIENTED_EDGE('',*,*,#264,.T.);
#332=ORIENTED_EDGE('',*,*,#265,.T.);
#333=ORIENTED_EDGE('',*,*,#266,.T.);
#334=ORIENTED_EDGE('',*,*,#267,.T.);
#335=ORIENTED_EDGE('',*,*,#268,.T.);
#336=ORIENTED_EDGE('',*,*,#269,.T.);
#337=ORIENTED_EDGE('',*,*,#270,.F.);
#338=ORIENTED_EDGE('',*,*,#271,.T.);
#339=ORIENTED_EDGE('',*,*,#272,.T.);
#340=ORIENTED_EDGE('',*,*,#273,.T.);
#341=ORIENTED_EDGE('',*,*,#274,.T.);
#342=ORIENTED_EDGE('',*,*,#275,.T.);
#343=ORIENTED_EDGE('',*,*,#276,.F.);
#344=ORIENTED_EDGE('',*,*,#255,.F.);
#345=ORIENTED_EDGE('',*,*,#257,.F.);
#346=ORIENTED_EDGE('',*,*,#277,.T.);
#347=ORIENTED_EDGE('',*,*,#278,.T.);
#348=ORIENTED_EDGE('',*,*,#277,.F.);
#349=ORIENTED_EDGE('',*,*,#270,.T.);
#350=ORIENTED_EDGE('',*,*,#279,.T.);
#351=ORIENTED_EDGE('',*,*,#280,.T.);
#352=ORIENTED_EDGE('',*,*,#279,.F.);
#353=ORIENTED_EDGE('',*,*,#280,.F.);
#354=ORIENTED_EDGE('',*,*,#281,.T.);
#355=ORIENTED_EDGE('',*,*,#282,.T.);
#356=ORIENTED_EDGE('',*,*,#281,.F.);
#357=ORIENTED_EDGE('',*,*,#276,.T.);
#358=ORIENTED_EDGE('',*,*,#283,.T.);
#359=ORIENTED_EDGE('',*,*,#284,.T.);
#360=ORIENTED_EDGE('',*,*,#283,.F.);
#361=ORIENTED_EDGE('',*,*,#284,.F.);
#362=ORIENTED_EDGE('',*,*,#285,.T.);
#363=ORIENTED_EDGE('',*,*,#286,.T.);
#364=ORIENTED_EDGE('',*,*,#285,.F.);
#365=ORIENTED_EDGE('',*,*,#271,.F.);
#366=ORIENTED_EDGE('',*,*,#287,.T.);
#367=ORIENTED_EDGE('',*,*,#288,.T.);
#368=ORIENTED_EDGE('',*,*,#287,.F.);
#369=ORIENTED_EDGE('',*,*,#272,.F.);
#370=ORIENTED_EDGE('',*,*,#289,.T.);
#371=ORIENTED_EDGE('',*,*,#290,.T.);
#372=ORIENTED_EDGE('',*,*,#289,.F.);
#373=ORIENTED_EDGE('',*,*,#273,.F.);
#374=ORIENTED_EDGE('',*,*,#291,.T.);
#375=ORIENTED_EDGE('',*,*,#292,.T.);
#376=ORIENTED_EDGE('',*,*,#291,.F.);
#377=ORIENTED_EDGE('',*,*,#274,.F.);
#378=ORIENTED_EDGE('',*,*,#293,.T.);
#379=ORIENTED_EDGE('',*,*,#294,.T.);
#380=ORIENTED_EDGE('',*,*,#293,.F.);
#381=ORIENTED_EDGE('',*,*,#275,.F.);
#382=ORIENTED_EDGE('',*,*,#295,.T.);
#383=ORIENTED_EDGE('',*,*,#296,.T.);
#384=ORIENTED_EDGE('',*,*,#295,.F.);
#385=ORIENTED_EDGE('',*,*,#297,.F.);
#386=ORIENTED_EDGE('',*,*,#298,.T.);
#387=ORIENTED_EDGE('',*,*,#269,.F.);
#388=ORIENTED_EDGE('',*,*,#299,.F.);
#389=ORIENTED_EDGE('',*,*,#300,.T.);
#390=ORIENTED_EDGE('',*,*,#299,.T.);
#391=ORIENTED_EDGE('',*,*,#268,.F.);
#392=ORIENTED_EDGE('',*,*,#301,.F.);
#393=ORIENTED_EDGE('',*,*,#302,.F.);
#394=ORIENTED_EDGE('',*,*,#301,.T.);
#395=ORIENTED_EDGE('',*,*,#267,.F.);
#396=ORIENTED_EDGE('',*,*,#303,.F.);
#397=ORIENTED_EDGE('',*,*,#304,.T.);
#398=ORIENTED_EDGE('',*,*,#303,.T.);
#399=ORIENTED_EDGE('',*,*,#266,.F.);
#400=ORIENTED_EDGE('',*,*,#305,.F.);
#401=ORIENTED_EDGE('',*,*,#306,.F.);
#402=ORIENTED_EDGE('',*,*,#305,.T.);
#403=ORIENTED_EDGE('',*,*,#265,.F.);
#404=ORIENTED_EDGE('',*,*,#307,.F.);
#405=ORIENTED_EDGE('',*,*,#308,.T.);
#406=ORIENTED_EDGE('',*,*,#307,.T.);
#407=ORIENTED_EDGE('',*,*,#264,.F.);
#408=ORIENTED_EDGE('',*,*,#309,.F.);
#409=ORIENTED_EDGE('',*,*,#310,.F.);
#410=ORIENTED_EDGE('',*,*,#309,.T.);
#411=ORIENTED_EDGE('',*,*,#263,.F.);
#412=ORIENTED_EDGE('',*,*,#311,.F.);
#413=ORIENTED_EDGE('',*,*,#312,.T.);
#414=ORIENTED_EDGE('',*,*,#311,.T.);
#415=ORIENTED_EDGE('',*,*,#262,.F.);
#416=ORIENTED_EDGE('',*,*,#313,.F.);
#417=ORIENTED_EDGE('',*,*,#314,.F.);
#418=ORIENTED_EDGE('',*,*,#313,.T.);
#419=ORIENTED_EDGE('',*,*,#261,.F.);
#420=ORIENTED_EDGE('',*,*,#315,.F.);
#421=ORIENTED_EDGE('',*,*,#316,.T.);
#422=ORIENTED_EDGE('',*,*,#315,.T.);
#423=ORIENTED_EDGE('',*,*,#260,.F.);
#424=ORIENTED_EDGE('',*,*,#317,.F.);
#425=ORIENTED_EDGE('',*,*,#318,.F.);
#426=ORIENTED_EDGE('',*,*,#317,.T.);
#427=ORIENTED_EDGE('',*,*,#259,.F.);
#428=ORIENTED_EDGE('',*,*,#319,.F.);
#429=ORIENTED_EDGE('',*,*,#320,.T.);
#430=ORIENTED_EDGE('',*,*,#319,.T.);
#431=ORIENTED_EDGE('',*,*,#258,.F.);
#432=ORIENTED_EDGE('',*,*,#298,.F.);
#433=ORIENTED_EDGE('',*,*,#320,.F.);
#434=ORIENTED_EDGE('',*,*,#297,.T.);
#435=ORIENTED_EDGE('',*,*,#300,.F.);
#436=ORIENTED_EDGE('',*,*,#302,.T.);
#437=ORIENTED_EDGE('',*,*,#304,.F.);
#438=ORIENTED_EDGE('',*,*,#306,.T.);
#439=ORIENTED_EDGE('',*,*,#308,.F.);
#440=ORIENTED_EDGE('',*,*,#310,.T.);
#441=ORIENTED_EDGE('',*,*,#312,.F.);
#442=ORIENTED_EDGE('',*,*,#314,.T.);
#443=ORIENTED_EDGE('',*,*,#316,.F.);
#444=ORIENTED_EDGE('',*,*,#318,.T.);
#445=ORIENTED_EDGE('',*,*,#296,.F.);
#446=ORIENTED_EDGE('',*,*,#294,.F.);
#447=ORIENTED_EDGE('',*,*,#278,.F.);
#448=ORIENTED_EDGE('',*,*,#292,.F.);
#449=ORIENTED_EDGE('',*,*,#290,.F.);
#450=ORIENTED_EDGE('',*,*,#282,.F.);
#451=ORIENTED_EDGE('',*,*,#286,.F.);
#452=ORIENTED_EDGE('',*,*,#288,.F.);
#453=CONICAL_SURFACE('',#496,2.,0.785398163397442);
#454=CONICAL_SURFACE('',#521,2.,0.785398163397441);
#455=CONICAL_SURFACE('',#525,2.,0.785398163397441);
#456=ADVANCED_FACE('',(#57),#453,.F.);
#457=ADVANCED_FACE('',(#58,#39,#40,#41,#42,#43,#44,#45,#46),#55,.T.);
#458=ADVANCED_FACE('',(#59),#19,.F.);
#459=ADVANCED_FACE('',(#60),#454,.F.);
#460=ADVANCED_FACE('',(#61),#20,.F.);
#461=ADVANCED_FACE('',(#62),#455,.F.);
#462=ADVANCED_FACE('',(#63),#21,.F.);
#463=ADVANCED_FACE('',(#64),#22,.F.);
#464=ADVANCED_FACE('',(#65),#23,.F.);
#465=ADVANCED_FACE('',(#66),#24,.F.);
#466=ADVANCED_FACE('',(#67),#25,.F.);
#467=ADVANCED_FACE('',(#68),#26,.F.);
#468=ADVANCED_FACE('',(#69),#27,.F.);
#469=ADVANCED_FACE('',(#70),#28,.T.);
#470=ADVANCED_FACE('',(#71),#29,.F.);
#471=ADVANCED_FACE('',(#72),#30,.T.);
#472=ADVANCED_FACE('',(#73),#31,.F.);
#473=ADVANCED_FACE('',(#74),#32,.T.);
#474=ADVANCED_FACE('',(#75),#33,.F.);
#475=ADVANCED_FACE('',(#76),#34,.T.);
#476=ADVANCED_FACE('',(#77),#35,.F.);
#477=ADVANCED_FACE('',(#78),#36,.T.);
#478=ADVANCED_FACE('',(#79),#37,.F.);
#479=ADVANCED_FACE('',(#80),#38,.T.);
#480=ADVANCED_FACE('',(#81,#47,#48,#49,#50,#51,#52,#53,#54),#56,.F.);
#481=CLOSED_SHELL('',(#456,#457,#458,#459,#460,#461,#462,#463,#464,#465,
#466,#467,#468,#469,#470,#471,#472,#473,#474,#475,#476,#477,#478,#479,#480));
#482=DERIVED_UNIT_ELEMENT(#484,1.);
#483=DERIVED_UNIT_ELEMENT(#874,-3.);
#484=(
MASS_UNIT()
NAMED_UNIT(*)
SI_UNIT(.KILO.,.GRAM.)
);
#485=DERIVED_UNIT((#482,#483));
#486=MEASURE_REPRESENTATION_ITEM('density measure',
POSITIVE_RATIO_MEASURE(1000.),#485);
#487=PROPERTY_DEFINITION_REPRESENTATION(#492,#489);
#488=PROPERTY_DEFINITION_REPRESENTATION(#493,#490);
#489=REPRESENTATION('material name',(#491),#871);
#490=REPRESENTATION('density',(#486),#871);
#491=DESCRIPTIVE_REPRESENTATION_ITEM('\X2\04220438043F043E0432044B0435\X0\',
'\X2\04220438043F043E0432044B0435\X0\');
#492=PROPERTY_DEFINITION('material property','material name',#886);
#493=PROPERTY_DEFINITION('material property','density of part',#886);
#494=AXIS2_PLACEMENT_3D('',#730,#565,#566);
#495=AXIS2_PLACEMENT_3D('',#731,#567,#568);
#496=AXIS2_PLACEMENT_3D('',#732,#569,#570);
#497=AXIS2_PLACEMENT_3D('',#734,#571,#572);
#498=AXIS2_PLACEMENT_3D('',#737,#574,#575);
#499=AXIS2_PLACEMENT_3D('',#738,#576,#577);
#500=AXIS2_PLACEMENT_3D('',#741,#578,#579);
#501=AXIS2_PLACEMENT_3D('',#743,#580,#581);
#502=AXIS2_PLACEMENT_3D('',#745,#582,#583);
#503=AXIS2_PLACEMENT_3D('',#747,#584,#585);
#504=AXIS2_PLACEMENT_3D('',#749,#586,#587);
#505=AXIS2_PLACEMENT_3D('',#751,#588,#589);
#506=AXIS2_PLACEMENT_3D('',#753,#590,#591);
#507=AXIS2_PLACEMENT_3D('',#755,#592,#593);
#508=AXIS2_PLACEMENT_3D('',#757,#594,#595);
#509=AXIS2_PLACEMENT_3D('',#759,#596,#597);
#510=AXIS2_PLACEMENT_3D('',#761,#598,#599);
#511=AXIS2_PLACEMENT_3D('',#762,#600,#601);
#512=AXIS2_PLACEMENT_3D('',#764,#602,#603);
#513=AXIS2_PLACEMENT_3D('',#766,#604,#605);
#514=AXIS2_PLACEMENT_3D('',#768,#606,#607);
#515=AXIS2_PLACEMENT_3D('',#770,#608,#609);
#516=AXIS2_PLACEMENT_3D('',#772,#610,#611);
#517=AXIS2_PLACEMENT_3D('',#774,#612,#613);
#518=AXIS2_PLACEMENT_3D('',#776,#614,#615);
#519=AXIS2_PLACEMENT_3D('',#777,#616,#617);
#520=AXIS2_PLACEMENT_3D('',#780,#619,#620);
#521=AXIS2_PLACEMENT_3D('',#781,#621,#622);
#522=AXIS2_PLACEMENT_3D('',#784,#624,#625);
#523=AXIS2_PLACEMENT_3D('',#785,#626,#627);
#524=AXIS2_PLACEMENT_3D('',#788,#629,#630);
#525=AXIS2_PLACEMENT_3D('',#789,#631,#632);
#526=AXIS2_PLACEMENT_3D('',#792,#634,#635);
#527=AXIS2_PLACEMENT_3D('',#793,#636,#637);
#528=AXIS2_PLACEMENT_3D('',#796,#639,#640);
#529=AXIS2_PLACEMENT_3D('',#797,#641,#642);
#530=AXIS2_PLACEMENT_3D('',#800,#644,#645);
#531=AXIS2_PLACEMENT_3D('',#801,#646,#647);
#532=AXIS2_PLACEMENT_3D('',#804,#649,#650);
#533=AXIS2_PLACEMENT_3D('',#805,#651,#652);
#534=AXIS2_PLACEMENT_3D('',#808,#654,#655);
#535=AXIS2_PLACEMENT_3D('',#809,#656,#657);
#536=AXIS2_PLACEMENT_3D('',#812,#659,#660);
#537=AXIS2_PLACEMENT_3D('',#813,#661,#662);
#538=AXIS2_PLACEMENT_3D('',#816,#664,#665);
#539=AXIS2_PLACEMENT_3D('',#817,#666,#667);
#540=AXIS2_PLACEMENT_3D('',#820,#668,#669);
#541=AXIS2_PLACEMENT_3D('',#823,#672,#673);
#542=AXIS2_PLACEMENT_3D('',#825,#674,#675);
#543=AXIS2_PLACEMENT_3D('',#827,#677,#678);
#544=AXIS2_PLACEMENT_3D('',#829,#679,#680);
#545=AXIS2_PLACEMENT_3D('',#831,#682,#683);
#546=AXIS2_PLACEMENT_3D('',#833,#684,#685);
#547=AXIS2_PLACEMENT_3D('',#835,#687,#688);
#548=AXIS2_PLACEMENT_3D('',#837,#689,#690);
#549=AXIS2_PLACEMENT_3D('',#839,#692,#693);
#550=AXIS2_PLACEMENT_3D('',#841,#694,#695);
#551=AXIS2_PLACEMENT_3D('',#843,#697,#698);
#552=AXIS2_PLACEMENT_3D('',#845,#699,#700);
#553=AXIS2_PLACEMENT_3D('',#847,#702,#703);
#554=AXIS2_PLACEMENT_3D('',#849,#704,#705);
#555=AXIS2_PLACEMENT_3D('',#851,#707,#708);
#556=AXIS2_PLACEMENT_3D('',#853,#709,#710);
#557=AXIS2_PLACEMENT_3D('',#855,#712,#713);
#558=AXIS2_PLACEMENT_3D('',#857,#714,#715);
#559=AXIS2_PLACEMENT_3D('',#859,#717,#718);
#560=AXIS2_PLACEMENT_3D('',#861,#719,#720);
#561=AXIS2_PLACEMENT_3D('',#863,#722,#723);
#562=AXIS2_PLACEMENT_3D('',#864,#724,#725);
#563=AXIS2_PLACEMENT_3D('',#865,#726,#727);
#564=AXIS2_PLACEMENT_3D('',#866,#728,#729);
#565=DIRECTION('axis',(0.,0.,1.));
#566=DIRECTION('refdir',(1.,0.,0.));
#567=DIRECTION('axis',(0.,0.,1.));
#568=DIRECTION('refdir',(1.,0.,0.));
#569=DIRECTION('center_axis',(-1.,0.,0.));
#570=DIRECTION('ref_axis',(0.,0.,1.));
#571=DIRECTION('center_axis',(-1.,0.,0.));
#572=DIRECTION('ref_axis',(0.,0.,1.));
#573=DIRECTION('',(0.707106781186552,8.65956056235488E-17,0.707106781186543));
#574=DIRECTION('center_axis',(1.,0.,0.));
#575=DIRECTION('ref_axis',(0.,0.,1.));
#576=DIRECTION('center_axis',(-1.,0.,0.));
#577=DIRECTION('ref_axis',(0.,0.,1.));
#578=DIRECTION('center_axis',(-1.,0.,0.));
#579=DIRECTION('ref_axis',(0.,0.,1.));
#580=DIRECTION('center_axis',(1.,0.,0.));
#581=DIRECTION('ref_axis',(0.,-0.777331278917521,0.629091474124751));
#582=DIRECTION('center_axis',(-1.,0.,0.));
#583=DIRECTION('ref_axis',(0.,0.776335740109366,-0.630319616249441));
#584=DIRECTION('center_axis',(1.,0.,0.));
#585=DIRECTION('ref_axis',(0.,-0.817087527073574,0.57651363652631));
#586=DIRECTION('center_axis',(-1.,0.,0.));
#587=DIRECTION('ref_axis',(0.,0.866025403784439,-0.5));
#588=DIRECTION('center_axis',(1.,0.,0.));
#589=DIRECTION('ref_axis',(0.,0.933474837354995,0.358642897636445));
#590=DIRECTION('center_axis',(-1.,0.,0.));
#591=DIRECTION('ref_axis',(0.,-0.934498645887405,-0.355966685006626));
#592=DIRECTION('center_axis',(1.,0.,0.));
#593=DIRECTION('ref_axis',(0.,0.90781921839672,0.419361737297966));
#594=DIRECTION('center_axis',(-1.,0.,0.));
#595=DIRECTION('ref_axis',(0.,-0.866025403784438,-0.5));
#596=DIRECTION('center_axis',(1.,0.,0.));
#597=DIRECTION('ref_axis',(0.,-0.156143558437474,-0.987734371761195));
#598=DIRECTION('center_axis',(-1.,0.,0.));
#599=DIRECTION('ref_axis',(0.,0.157704930120991,0.987486280925226));
#600=DIRECTION('center_axis',(1.,0.,0.));
#601=DIRECTION('ref_axis',(0.,-0.0907316913231462,-0.995875373824276));
#602=DIRECTION('center_axis',(-1.,0.,0.));
#603=DIRECTION('ref_axis',(0.,0.,1.));
#604=DIRECTION('center_axis',(1.,0.,0.));
#605=DIRECTION('ref_axis',(0.,0.,1.));
#606=DIRECTION('center_axis',(1.,0.,0.));
#607=DIRECTION('ref_axis',(0.,0.,1.));
#608=DIRECTION('center_axis',(1.,0.,0.));
#609=DIRECTION('ref_axis',(0.,0.,1.));
#610=DIRECTION('center_axis',(1.,0.,0.));
#611=DIRECTION('ref_axis',(0.,0.,1.));
#612=DIRECTION('center_axis',(1.,0.,0.));
#613=DIRECTION('ref_axis',(0.,0.,1.));
#614=DIRECTION('center_axis',(-1.,0.,0.));
#615=DIRECTION('ref_axis',(0.,0.,1.));
#616=DIRECTION('center_axis',(-1.,0.,0.));
#617=DIRECTION('ref_axis',(0.,0.,1.));
#618=DIRECTION('',(1.,0.,0.));
#619=DIRECTION('center_axis',(1.,0.,0.));
#620=DIRECTION('ref_axis',(0.,0.,1.));
#621=DIRECTION('center_axis',(-1.,0.,0.));
#622=DIRECTION('ref_axis',(0.,0.,1.));
#623=DIRECTION('',(0.707106781186553,8.65956056235487E-17,0.707106781186542));
#624=DIRECTION('center_axis',(1.,0.,0.));
#625=DIRECTION('ref_axis',(0.,0.,1.));
#626=DIRECTION('center_axis',(-1.,0.,0.));
#627=DIRECTION('ref_axis',(0.,0.,1.));
#628=DIRECTION('',(1.,0.,0.));
#629=DIRECTION('center_axis',(1.,0.,0.));
#630=DIRECTION('ref_axis',(0.,0.,1.));
#631=DIRECTION('center_axis',(-1.,0.,0.));
#632=DIRECTION('ref_axis',(0.,0.,1.));
#633=DIRECTION('',(0.707106781186553,8.65956056235487E-17,0.707106781186543));
#634=DIRECTION('center_axis',(1.,0.,0.));
#635=DIRECTION('ref_axis',(0.,0.,1.));
#636=DIRECTION('center_axis',(-1.,0.,0.));
#637=DIRECTION('ref_axis',(0.,0.,1.));
#638=DIRECTION('',(1.,0.,0.));
#639=DIRECTION('center_axis',(1.,0.,0.));
#640=DIRECTION('ref_axis',(0.,0.,1.));
#641=DIRECTION('center_axis',(-1.,0.,0.));
#642=DIRECTION('ref_axis',(0.,0.,1.));
#643=DIRECTION('',(1.,0.,0.));
#644=DIRECTION('center_axis',(1.,0.,0.));
#645=DIRECTION('ref_axis',(0.,0.,1.));
#646=DIRECTION('center_axis',(-1.,0.,0.));
#647=DIRECTION('ref_axis',(0.,0.,1.));
#648=DIRECTION('',(1.,0.,0.));
#649=DIRECTION('center_axis',(1.,0.,0.));
#650=DIRECTION('ref_axis',(0.,0.,1.));
#651=DIRECTION('center_axis',(-1.,0.,0.));
#652=DIRECTION('ref_axis',(0.,0.,1.));
#653=DIRECTION('',(1.,0.,0.));
#654=DIRECTION('center_axis',(1.,0.,0.));
#655=DIRECTION('ref_axis',(0.,0.,1.));
#656=DIRECTION('center_axis',(-1.,0.,0.));
#657=DIRECTION('ref_axis',(0.,0.,1.));
#658=DIRECTION('',(1.,0.,0.));
#659=DIRECTION('center_axis',(1.,0.,0.));
#660=DIRECTION('ref_axis',(0.,0.,1.));
#661=DIRECTION('center_axis',(-1.,0.,0.));
#662=DIRECTION('ref_axis',(0.,0.,1.));
#663=DIRECTION('',(1.,0.,0.));
#664=DIRECTION('center_axis',(1.,0.,0.));
#665=DIRECTION('ref_axis',(0.,0.,1.));
#666=DIRECTION('center_axis',(-1.,0.,0.));
#667=DIRECTION('ref_axis',(0.,-0.0907316913231462,-0.995875373824276));
#668=DIRECTION('center_axis',(-1.,0.,0.));
#669=DIRECTION('ref_axis',(0.,-0.0907316913231462,-0.995875373824276));
#670=DIRECTION('',(-1.,0.,0.));
#671=DIRECTION('',(-1.,0.,0.));
#672=DIRECTION('center_axis',(-1.,0.,0.));
#673=DIRECTION('ref_axis',(0.,0.157704930120991,0.987486280925226));
#674=DIRECTION('center_axis',(-1.,0.,0.));
#675=DIRECTION('ref_axis',(0.,0.157704930120991,0.987486280925226));
#676=DIRECTION('',(-1.,0.,0.));
#677=DIRECTION('center_axis',(-1.,0.,0.));
#678=DIRECTION('ref_axis',(0.,-0.156143558437474,-0.987734371761195));
#679=DIRECTION('center_axis',(-1.,0.,0.));
#680=DIRECTION('ref_axis',(0.,-0.156143558437474,-0.987734371761195));
#681=DIRECTION('',(-1.,0.,0.));
#682=DIRECTION('center_axis',(-1.,0.,0.));
#683=DIRECTION('ref_axis',(0.,-0.866025403784438,-0.5));
#684=DIRECTION('center_axis',(-1.,0.,0.));
#685=DIRECTION('ref_axis',(0.,-0.866025403784438,-0.5));
#686=DIRECTION('',(-1.,0.,0.));
#687=DIRECTION('center_axis',(-1.,0.,0.));
#688=DIRECTION('ref_axis',(0.,0.90781921839672,0.419361737297966));
#689=DIRECTION('center_axis',(-1.,0.,0.));
#690=DIRECTION('ref_axis',(0.,0.90781921839672,0.419361737297966));
#691=DIRECTION('',(-1.,0.,0.));
#692=DIRECTION('center_axis',(-1.,0.,0.));
#693=DIRECTION('ref_axis',(0.,-0.934498645887405,-0.355966685006626));
#694=DIRECTION('center_axis',(-1.,0.,0.));
#695=DIRECTION('ref_axis',(0.,-0.934498645887405,-0.355966685006626));
#696=DIRECTION('',(-1.,0.,0.));
#697=DIRECTION('center_axis',(-1.,0.,0.));
#698=DIRECTION('ref_axis',(0.,0.933474837354995,0.358642897636445));
#699=DIRECTION('center_axis',(-1.,0.,0.));
#700=DIRECTION('ref_axis',(0.,0.933474837354995,0.358642897636445));
#701=DIRECTION('',(-1.,0.,0.));
#702=DIRECTION('center_axis',(-1.,0.,0.));
#703=DIRECTION('ref_axis',(0.,0.866025403784439,-0.5));
#704=DIRECTION('center_axis',(-1.,0.,0.));
#705=DIRECTION('ref_axis',(0.,0.866025403784439,-0.5));
#706=DIRECTION('',(-1.,0.,0.));
#707=DIRECTION('center_axis',(-1.,0.,0.));
#708=DIRECTION('ref_axis',(0.,-0.817087527073574,0.57651363652631));
#709=DIRECTION('center_axis',(-1.,0.,0.));
#710=DIRECTION('ref_axis',(0.,-0.817087527073574,0.57651363652631));
#711=DIRECTION('',(-1.,0.,0.));
#712=DIRECTION('center_axis',(-1.,0.,0.));
#713=DIRECTION('ref_axis',(0.,0.776335740109366,-0.630319616249441));
#714=DIRECTION('center_axis',(-1.,0.,0.));
#715=DIRECTION('ref_axis',(0.,0.776335740109366,-0.630319616249441));
#716=DIRECTION('',(-1.,0.,0.));
#717=DIRECTION('center_axis',(-1.,0.,0.));
#718=DIRECTION('ref_axis',(0.,-0.777331278917521,0.629091474124751));
#719=DIRECTION('center_axis',(-1.,0.,0.));
#720=DIRECTION('ref_axis',(0.,-0.777331278917521,0.629091474124751));
#721=DIRECTION('',(-1.,0.,0.));
#722=DIRECTION('center_axis',(-1.,0.,0.));
#723=DIRECTION('ref_axis',(0.,0.,1.));
#724=DIRECTION('center_axis',(-1.,0.,0.));
#725=DIRECTION('ref_axis',(0.,0.,1.));
#726=DIRECTION('center_axis',(-1.,0.,0.));
#727=DIRECTION('ref_axis',(0.,0.,1.));
#728=DIRECTION('',(0.,0.,0.999999999999996));
#729=DIRECTION('',(1.,0.,0.));
#730=CARTESIAN_POINT('',(0.,0.,0.));
#731=CARTESIAN_POINT('',(0.,0.,0.));
#732=CARTESIAN_POINT('Origin',(-172.5,-5.99999999999997,10.3923048454132));
#733=CARTESIAN_POINT('',(-173.,-5.99999999999997,7.89230484541322));
#734=CARTESIAN_POINT('Origin',(-173.,-5.99999999999997,10.3923048454132));
#735=CARTESIAN_POINT('',(-172.,-5.99999999999997,8.89230484541322));
#736=CARTESIAN_POINT('',(-172.5,-5.99999999999997,8.39230484541322));
#737=CARTESIAN_POINT('Origin',(-172.,-5.99999999999997,10.3923048454132));
#738=CARTESIAN_POINT('Origin',(-173.,3.,-2.22044604925031E-15));
#739=CARTESIAN_POINT('',(-173.,12.,3.00000004470348));
#740=CARTESIAN_POINT('',(-173.,12.,-3.00000004470348));
#741=CARTESIAN_POINT('Origin',(-173.,12.,0.));
#742=CARTESIAN_POINT('',(-173.,6.97972963554508,-5.6818460217339));
#743=CARTESIAN_POINT('Origin',(-173.,12.6634108573563,-10.2816292740733));
#744=CARTESIAN_POINT('',(-173.,1.43075817744056,-8.88554618679609));
#745=CARTESIAN_POINT('Origin',(-173.,1.11022302462516E-15,-5.55111512312578E-16));
#746=CARTESIAN_POINT('',(-173.,-3.40192374993233,-11.892304867765));
#747=CARTESIAN_POINT('Origin',(-173.,2.57244671496309,-16.1076501380669));
#748=CARTESIAN_POINT('',(-173.,-8.59807625006767,-8.89230482306153));
#749=CARTESIAN_POINT('Origin',(-173.,-6.,-10.3923048454133));
#750=CARTESIAN_POINT('',(-173.,-8.41048781298662,-3.20370016505963));
#751=CARTESIAN_POINT('Origin',(-173.,-15.2358575723194,-5.82602086399358));
#752=CARTESIAN_POINT('',(-173.,-8.41048781298564,3.20370016506219));
#753=CARTESIAN_POINT('Origin',(-173.,1.11022302462516E-15,-5.55111512312578E-16));
#754=CARTESIAN_POINT('',(-173.,-8.59807625006767,8.89230482306152));
#755=CARTESIAN_POINT('Origin',(-173.,-15.2358575723194,5.82602086399357));
#756=CARTESIAN_POINT('',(-173.,-3.40192374993234,11.892304867765));
#757=CARTESIAN_POINT('Origin',(-173.,-6.,10.3923048454133));
#758=CARTESIAN_POINT('',(-173.,1.43075817744057,8.88554618679609));
#759=CARTESIAN_POINT('Origin',(-173.,2.57244671496308,16.1076501380669));
#760=CARTESIAN_POINT('',(-173.,6.97972963554508,5.6818460217339));
#761=CARTESIAN_POINT('Origin',(-173.,1.11022302462516E-15,-5.55111512312578E-16));
#762=CARTESIAN_POINT('Origin',(-173.,12.6634108573563,10.2816292740733));
#763=CARTESIAN_POINT('',(-173.,-5.99999999999998,-12.8923048454132));
#764=CARTESIAN_POINT('Origin',(-173.,-5.99999999999998,-10.3923048454132));
#765=CARTESIAN_POINT('',(-173.,4.24215713020876,-5.24312418892244));
#766=CARTESIAN_POINT('Origin',(-173.,4.24215713020876,-4.24312418892244));
#767=CARTESIAN_POINT('',(-173.,0.,-2.00000002980232));
#768=CARTESIAN_POINT('Origin',(-173.,0.,0.));
#769=CARTESIAN_POINT('',(-173.,-4.24215713020876,3.24312418892244));
#770=CARTESIAN_POINT('Origin',(-173.,-4.24215713020876,4.24312418892244));
#771=CARTESIAN_POINT('',(-173.,-4.24312418892244,-5.24215713020876));
#772=CARTESIAN_POINT('Origin',(-173.,-4.24312418892244,-4.24215713020876));
#773=CARTESIAN_POINT('',(-173.,4.24312418892244,3.24215713020876));
#774=CARTESIAN_POINT('Origin',(-173.,4.24312418892244,4.24215713020876));
#775=CARTESIAN_POINT('',(-173.,12.,-2.5));
#776=CARTESIAN_POINT('Origin',(-173.,12.,-1.79414861166065E-15));
#777=CARTESIAN_POINT('Origin',(-170.,-5.99999999999997,10.3923048454132));
#778=CARTESIAN_POINT('',(-170.,-5.99999999999997,8.89230484541322));
#779=CARTESIAN_POINT('',(-170.,-5.99999999999997,8.89230484541322));
#780=CARTESIAN_POINT('Origin',(-170.,-5.99999999999997,10.3923048454132));
#781=CARTESIAN_POINT('Origin',(-172.5,-5.99999999999998,-10.3923048454132));
#782=CARTESIAN_POINT('',(-172.,-5.99999999999998,-11.8923048454132));
#783=CARTESIAN_POINT('',(-172.5,-5.99999999999998,-12.3923048454132));
#784=CARTESIAN_POINT('Origin',(-172.,-5.99999999999998,-10.3923048454132));
#785=CARTESIAN_POINT('Origin',(-170.,-5.99999999999998,-10.3923048454132));
#786=CARTESIAN_POINT('',(-170.,-5.99999999999998,-11.8923048454132));
#787=CARTESIAN_POINT('',(-170.,-5.99999999999998,-11.8923048454132));
#788=CARTESIAN_POINT('Origin',(-170.,-5.99999999999998,-10.3923048454132));
#789=CARTESIAN_POINT('Origin',(-172.5,12.,-1.79414861166065E-15));
#790=CARTESIAN_POINT('',(-172.,12.,-1.5));
#791=CARTESIAN_POINT('',(-172.5,12.,-2.));
#792=CARTESIAN_POINT('Origin',(-172.,12.,-1.79414861166065E-15));
#793=CARTESIAN_POINT('Origin',(-170.,12.,-1.79414861166065E-15));
#794=CARTESIAN_POINT('',(-170.,12.,-1.5));
#795=CARTESIAN_POINT('',(-170.,12.,-1.5));
#796=CARTESIAN_POINT('Origin',(-170.,12.,-1.79414861166065E-15));
#797=CARTESIAN_POINT('Origin',(-170.,4.24215713020876,-4.24312418892244));
#798=CARTESIAN_POINT('',(-170.,4.24215713020876,-5.24312418892244));
#799=CARTESIAN_POINT('',(-170.,4.24215713020876,-5.24312418892244));
#800=CARTESIAN_POINT('Origin',(-170.,4.24215713020876,-4.24312418892244));
#801=CARTESIAN_POINT('Origin',(-170.,0.,0.));
#802=CARTESIAN_POINT('',(-170.,-2.44929363479203E-16,-2.00000002980232));
#803=CARTESIAN_POINT('',(-170.,-2.44929363479203E-16,-2.00000002980232));
#804=CARTESIAN_POINT('Origin',(-170.,0.,0.));
#805=CARTESIAN_POINT('Origin',(-170.,-4.24215713020876,4.24312418892244));
#806=CARTESIAN_POINT('',(-170.,-4.24215713020876,3.24312418892244));
#807=CARTESIAN_POINT('',(-170.,-4.24215713020876,3.24312418892244));
#808=CARTESIAN_POINT('Origin',(-170.,-4.24215713020876,4.24312418892244));
#809=CARTESIAN_POINT('Origin',(-170.,-4.24312418892244,-4.24215713020876));
#810=CARTESIAN_POINT('',(-170.,-4.24312418892244,-5.24215713020876));
#811=CARTESIAN_POINT('',(-170.,-4.24312418892244,-5.24215713020876));
#812=CARTESIAN_POINT('Origin',(-170.,-4.24312418892244,-4.24215713020876));
#813=CARTESIAN_POINT('Origin',(-170.,4.24312418892244,4.24215713020876));
#814=CARTESIAN_POINT('',(-170.,4.24312418892244,3.24215713020876));
#815=CARTESIAN_POINT('',(-170.,4.24312418892244,3.24215713020876));
#816=CARTESIAN_POINT('Origin',(-170.,4.24312418892244,4.24215713020876));
#817=CARTESIAN_POINT('Origin',(-170.,12.6634108573563,10.2816292740733));
#818=CARTESIAN_POINT('',(-170.,12.,3.00000004470348));
#819=CARTESIAN_POINT('',(-170.,6.97972963554508,5.6818460217339));
#820=CARTESIAN_POINT('Origin',(-170.,12.6634108573563,10.2816292740733));
#821=CARTESIAN_POINT('',(-170.,12.,3.00000004470348));
#822=CARTESIAN_POINT('',(-170.,6.97972963554508,5.6818460217339));
#823=CARTESIAN_POINT('Origin',(-170.,1.11022302462516E-15,-5.55111512312578E-16));
#824=CARTESIAN_POINT('',(-170.,1.43075817744057,8.88554618679609));
#825=CARTESIAN_POINT('Origin',(-170.,1.11022302462516E-15,-5.55111512312578E-16));
#826=CARTESIAN_POINT('',(-170.,1.43075817744057,8.88554618679609));
#827=CARTESIAN_POINT('Origin',(-170.,2.57244671496308,16.1076501380669));
#828=CARTESIAN_POINT('',(-170.,-3.40192374993234,11.892304867765));
#829=CARTESIAN_POINT('Origin',(-170.,2.57244671496308,16.1076501380669));
#830=CARTESIAN_POINT('',(-170.,-3.40192374993234,11.892304867765));
#831=CARTESIAN_POINT('Origin',(-170.,-6.,10.3923048454133));
#832=CARTESIAN_POINT('',(-170.,-8.59807625006767,8.89230482306152));
#833=CARTESIAN_POINT('Origin',(-170.,-6.,10.3923048454133));
#834=CARTESIAN_POINT('',(-170.,-8.59807625006767,8.89230482306152));
#835=CARTESIAN_POINT('Origin',(-170.,-15.2358575723194,5.82602086399357));
#836=CARTESIAN_POINT('',(-170.,-8.41048781298564,3.20370016506219));
#837=CARTESIAN_POINT('Origin',(-170.,-15.2358575723194,5.82602086399357));
#838=CARTESIAN_POINT('',(-170.,-8.41048781298564,3.20370016506219));
#839=CARTESIAN_POINT('Origin',(-170.,1.11022302462516E-15,-5.55111512312578E-16));
#840=CARTESIAN_POINT('',(-170.,-8.41048781298662,-3.20370016505962));
#841=CARTESIAN_POINT('Origin',(-170.,1.11022302462516E-15,-5.55111512312578E-16));
#842=CARTESIAN_POINT('',(-170.,-8.41048781298662,-3.20370016505962));
#843=CARTESIAN_POINT('Origin',(-170.,-15.2358575723194,-5.82602086399358));
#844=CARTESIAN_POINT('',(-170.,-8.59807625006767,-8.89230482306153));
#845=CARTESIAN_POINT('Origin',(-170.,-15.2358575723194,-5.82602086399358));
#846=CARTESIAN_POINT('',(-170.,-8.59807625006767,-8.89230482306153));
#847=CARTESIAN_POINT('Origin',(-170.,-6.,-10.3923048454133));
#848=CARTESIAN_POINT('',(-170.,-3.40192374993233,-11.892304867765));
#849=CARTESIAN_POINT('Origin',(-170.,-6.,-10.3923048454133));
#850=CARTESIAN_POINT('',(-170.,-3.40192374993233,-11.892304867765));
#851=CARTESIAN_POINT('Origin',(-170.,2.57244671496309,-16.1076501380669));
#852=CARTESIAN_POINT('',(-170.,1.43075817744056,-8.88554618679609));
#853=CARTESIAN_POINT('Origin',(-170.,2.57244671496309,-16.1076501380669));
#854=CARTESIAN_POINT('',(-170.,1.43075817744056,-8.88554618679609));
#855=CARTESIAN_POINT('Origin',(-170.,1.11022302462516E-15,-5.55111512312578E-16));
#856=CARTESIAN_POINT('',(-170.,6.97972963554508,-5.6818460217339));
#857=CARTESIAN_POINT('Origin',(-170.,1.11022302462516E-15,-5.55111512312578E-16));
#858=CARTESIAN_POINT('',(-170.,6.97972963554508,-5.6818460217339));
#859=CARTESIAN_POINT('Origin',(-170.,12.6634108573563,-10.2816292740733));
#860=CARTESIAN_POINT('',(-170.,12.,-3.00000004470348));
#861=CARTESIAN_POINT('Origin',(-170.,12.6634108573563,-10.2816292740733));
#862=CARTESIAN_POINT('',(-170.,12.,-3.00000004470348));
#863=CARTESIAN_POINT('Origin',(-170.,12.,0.));
#864=CARTESIAN_POINT('Origin',(-170.,12.,0.));
#865=CARTESIAN_POINT('Origin',(-170.,3.,-2.22044604925031E-15));
#866=CARTESIAN_POINT('',(170.,0.,0.));
#867=UNCERTAINTY_MEASURE_WITH_UNIT(LENGTH_MEASURE(0.01),#873,
'DISTANCE_ACCURACY_VALUE',
'Maximum model space distance between geometric entities at asserted c
onnectivities');
#868=UNCERTAINTY_MEASURE_WITH_UNIT(LENGTH_MEASURE(0.01),#873,
'DISTANCE_ACCURACY_VALUE',
'Maximum model space distance between geometric entities at asserted c
onnectivities');
#869=UNCERTAINTY_MEASURE_WITH_UNIT(LENGTH_MEASURE(0.01),#873,
'DISTANCE_ACCURACY_VALUE',
'Maximum model space distance between geometric entities at asserted c
onnectivities');
#870=(
GEOMETRIC_REPRESENTATION_CONTEXT(3)
GLOBAL_UNCERTAINTY_ASSIGNED_CONTEXT((#867))
GLOBAL_UNIT_ASSIGNED_CONTEXT((#873,#875,#876))
REPRESENTATION_CONTEXT('','3D')
);
#871=(
GEOMETRIC_REPRESENTATION_CONTEXT(3)
GLOBAL_UNCERTAINTY_ASSIGNED_CONTEXT((#868))
GLOBAL_UNIT_ASSIGNED_CONTEXT((#873,#875,#876))
REPRESENTATION_CONTEXT('','3D')
);
#872=(
GEOMETRIC_REPRESENTATION_CONTEXT(3)
GLOBAL_UNCERTAINTY_ASSIGNED_CONTEXT((#869))
GLOBAL_UNIT_ASSIGNED_CONTEXT((#873,#875,#876))
REPRESENTATION_CONTEXT('','3D')
);
#873=(
LENGTH_UNIT()
NAMED_UNIT(*)
SI_UNIT(.MILLI.,.METRE.)
);
#874=(
LENGTH_UNIT()
NAMED_UNIT(*)
SI_UNIT($,.METRE.)
);
#875=(
NAMED_UNIT(*)
PLANE_ANGLE_UNIT()
SI_UNIT($,.RADIAN.)
);
#876=(
NAMED_UNIT(*)
SI_UNIT($,.STERADIAN.)
SOLID_ANGLE_UNIT()
);
#877=SHAPE_DEFINITION_REPRESENTATION(#879,#882);
#878=SHAPE_DEFINITION_REPRESENTATION(#880,#883);
#879=PRODUCT_DEFINITION_SHAPE('',$,#885);
#880=PRODUCT_DEFINITION_SHAPE('',$,#886);
#881=PRODUCT_DEFINITION_SHAPE($,$,#14);
#882=SHAPE_REPRESENTATION('',(#494,#564),#870);
#883=SHAPE_REPRESENTATION('',(#495),#871);
#884=PRODUCT_DEFINITION_CONTEXT('part definition',#892,'design');
#885=PRODUCT_DEFINITION(
'\X2\041A04400435043F043B0435043D04380435\X0\ \X2\0434043B044F\X0\ \X2\04410430043C043E043B043504420430\X0\ 
\X2\043C0430043B0435043D044C043A043E0433043E\X0\',
'\X2\041A04400435043F043B0435043D04380435\X0\ \X2\0434043B044F\X0\ \X2\04410430043C043E043B043504420430\X0\ 
\X2\043C0430043B0435043D044C043A043E0433043E\X0\ v2',#887,#884);
#886=PRODUCT_DEFINITION('Base (1)','Base (1)',#888,#884);
#887=PRODUCT_DEFINITION_FORMATION('',$,#894);
#888=PRODUCT_DEFINITION_FORMATION('',$,#895);
#889=PRODUCT_RELATED_PRODUCT_CATEGORY(
'\X2\041A04400435043F043B0435043D04380435\X0\ \X2\0434043B044F\X0\ \X2\04410430043C043E043B043504420430\X0\ 
\X2\043C0430043B0435043D044C043A043E0433043E\X0\ v2',
'\X2\041A04400435043F043B0435043D04380435\X0\ \X2\0434043B044F\X0\ \X2\04410430043C043E043B043504420430\X0\ 
\X2\043C0430043B0435043D044C043A043E0433043E\X0\ v2',(#894));
#890=PRODUCT_RELATED_PRODUCT_CATEGORY('Base (1)','Base (1)',(#895));
#891=APPLICATION_PROTOCOL_DEFINITION('international standard',
'automotive_design',2009,#892);
#892=APPLICATION_CONTEXT(
'Core Data for Automotive Mechanical Design Process');
#893=PRODUCT_CONTEXT('part definition',#892,'mechanical');
#894=PRODUCT(
'\X2\041A04400435043F043B0435043D04380435\X0\ \X2\0434043B044F\X0\ \X2\04410430043C043E043B043504420430\X0\ 
\X2\043C0430043B0435043D044C043A043E0433043E\X0\',
'\X2\041A04400435043F043B0435043D04380435\X0\ \X2\0434043B044F\X0\ \X2\04410430043C043E043B043504420430\X0\ 
\X2\043C0430043B0435043D044C043A043E0433043E\X0\ v2',$,(#893));
#895=PRODUCT('Base (1)','Base (1)',$,(#893));
#896=PRESENTATION_STYLE_ASSIGNMENT((#899));
#897=PRESENTATION_STYLE_ASSIGNMENT((#900));
#898=PRESENTATION_STYLE_ASSIGNMENT((#901));
#899=SURFACE_STYLE_USAGE(.BOTH.,#902);
#900=SURFACE_STYLE_USAGE(.BOTH.,#903);
#901=SURFACE_STYLE_USAGE(.BOTH.,#904);
#902=SURFACE_SIDE_STYLE('',(#905));
#903=SURFACE_SIDE_STYLE('',(#906));
#904=SURFACE_SIDE_STYLE('',(#907));
#905=SURFACE_STYLE_FILL_AREA(#908);
#906=SURFACE_STYLE_FILL_AREA(#909);
#907=SURFACE_STYLE_FILL_AREA(#910);
#908=FILL_AREA_STYLE('Steel - Satin',(#911));
#909=FILL_AREA_STYLE('Opaque(255,111,86)',(#912));
#910=FILL_AREA_STYLE('Opaque(204,0,0)',(#913));
#911=FILL_AREA_STYLE_COLOUR('Steel - Satin',#914);
#912=FILL_AREA_STYLE_COLOUR('Opaque(255,111,86)',#915);
#913=FILL_AREA_STYLE_COLOUR('Opaque(204,0,0)',#916);
#914=COLOUR_RGB('Steel - Satin',0.627450980392157,0.627450980392157,0.627450980392157);
#915=COLOUR_RGB('Opaque(255,111,86)',1.,0.435294117647059,0.337254901960784);
#916=COLOUR_RGB('Opaque(204,0,0)',0.8,0.,0.);
ENDSEC;
END-ISO-10303-21;
